<svg width="1920" height="1347" viewBox="0 0 1920 1347" fill="none" xmlns="http://www.w3.org/2000/svg">
<g clip-path="url(#clip0_31_3322)">
<rect width="1920" height="1347" fill="#E3D8A0"/>
<path d="M1507 454.5L1609.54 395H1614.12C1618.7 395 1698.35 445.346 1704.76 448.092C1709.89 450.289 1712.39 453.279 1713 454.5C1681.26 474.333 1616.13 514 1609.54 514C1602.95 514 1595.81 510.338 1593.06 508.508L1507 460.908V454.5Z" stroke="#2B051E" stroke-width="2"/>
<path d="M1502.49 845.755C1499.34 845.046 1491.14 843.485 1483.57 842.917C1475.99 842.35 1465.05 842.681 1460.52 842.917" stroke="#2B051E" stroke-width="2"/>
<path d="M1546.1 803.189C1531.62 798.649 1516.48 797.513 1510.72 797.513" stroke="#2B051E" stroke-width="2"/>
<path d="M1585.6 773.393C1576.53 770.524 1556.75 764.52 1550.22 763.461" stroke="#2B051E" stroke-width="2"/>
<path d="M1625.93 746.434C1619.8 743.155 1605.29 736.294 1596.3 735.083" stroke="#2B051E" stroke-width="2"/>
<path d="M1671.19 722.314C1664.5 717.584 1649.38 708.125 1642.38 708.125" stroke="#2B051E" stroke-width="2"/>
<path d="M1713.15 701.031C1708.27 696.5 1696.99 686.469 1690.93 682.585" stroke="#2B051E" stroke-width="2"/>
<path d="M1759.23 682.585C1755.35 678.261 1746.13 668.802 1740.31 665.559" stroke="#2B051E" stroke-width="2"/>
<path d="M1807.79 672.653C1804.85 666.896 1797.94 654.862 1793.8 652.789" stroke="#2B051E" stroke-width="2"/>
<path d="M1904.48 659.884C1904.48 654.917 1904.06 644.418 1902.42 642.148" stroke="#2B051E" stroke-width="2"/>
<path d="M1988 660.593C1929.85 656.573 1792.32 659.458 1707.39 703.159C1601.24 757.785 1553.1 789.71 1506.19 840.079C1468.67 880.375 1426.65 948.15 1410.33 977" stroke="#2B051E" stroke-width="2"/>
<path d="M1987.18 641.438C1925.73 637.182 1780.14 639.878 1689.29 684.714C1575.73 740.759 1551.04 762.042 1544.87 766.298C1538.7 770.555 1438.31 862.781 1414.44 893.287C1395.35 917.691 1381.53 933.725 1377 938.691" stroke="#2B051E" stroke-width="2"/>
<path d="M1855.93 664.14C1855.24 660.356 1853.37 652.08 1851.4 649.242C1849.42 646.404 1848.11 644.749 1847.7 644.276" stroke="#2B051E" stroke-width="2"/>
<path d="M1472.04 881.227C1460.96 878.862 1430.21 881.227 1423.91 881.227" stroke="#2B051E" stroke-width="2"/>
<path d="M1444.89 919.536C1429.22 919.536 1396.58 919.82 1391.4 920.955" stroke="#2B051E" stroke-width="2"/>
<path d="M-1.01221 131.5C31.1545 133 101.488 135.9 125.488 135.5C155.488 135 210.988 131.5 218.488 131.5C225.988 131.5 375.488 112 406.488 106C437.488 100 536.988 77 556.488 70.5C575.988 64 637.988 38 651.988 33.5C665.988 29 681.488 24 687.988 20.5C694.488 17 706.988 12.5 711.988 9.5C716.988 6.5 722.988 4.5 725.488 3" stroke="#2B051E" stroke-width="2"/>
<path d="M150.488 159.5C108.088 161.9 31.1544 158.5 -2.01225 156.5H-11.0123C-12.5123 163.833 -14.6123 178.5 -11.0123 178.5H22.4877H129.488C141.488 178.5 192.488 179 208.488 178.5C224.488 178 412.988 149 427.988 145.5C442.988 142 559.488 116 580.488 112C601.488 108 672.488 78 690.988 71.5C705.788 66.3 725.488 57.3334 733.488 53.5001C734.988 45.5001 737.088 30.1001 733.488 32.5001C728.988 35.5001 619.988 76.0001 601.988 82.5001C583.988 89.0001 489.488 112 453.488 121.5C417.488 131 308.988 146.5 292.488 149C275.988 151.5 203.488 156.5 150.488 159.5Z" fill="#DB9116" stroke="#2B051E" stroke-width="2"/>
<path d="M494.789 449.775V435.775H519.5L676 527.775L820.789 607H851L956.5 551.5L1115.79 446.775C1116.96 448.775 1119.69 453.875 1121.29 458.275C1123.29 463.775 1121.79 469.275 1119.29 475.275C1116.79 481.275 1108.29 487.275 1099.79 493.275C1091.29 499.275 998.789 560.775 987.789 567.275C976.789 573.775 903.789 618.775 892.289 626.275C880.789 633.775 866.289 641.275 856.789 644.275C847.289 647.275 829.789 644.775 820.789 644.275C811.789 643.775 780.289 624.275 777.289 621.275C774.289 618.275 743.789 602.275 739.289 599.775C734.789 597.275 620.289 532.275 613.289 527.775C606.289 523.275 538.789 486.275 532.789 482.775C526.789 479.275 508.289 468.275 503.789 465.275C499.289 462.275 494.789 455.275 494.789 449.775Z" fill="#DB9116" stroke="#2B051E" stroke-width="2"/>
<path d="M496.289 437.776C499.489 447.776 522.622 457.609 533.789 461.276C534.956 462.442 538.289 465.175 542.289 466.775C547.289 468.775 659.789 535.775 666.789 539.275C673.789 542.775 788.289 609.775 792.789 611.775C797.289 613.775 820.289 625.775 835.289 625.775C850.289 625.775 871.789 615.275 876.289 611.775C880.789 608.275 926.593 581.648 932 579C939.711 575.225 1110.29 470.275 1114.29 466.275C1118.29 462.275 1117.79 457.275 1117.79 450.775C1117.79 444.275 1102.29 438.275 1097.79 435.275C1093.29 432.275 900.789 322.775 895.789 319.775C890.789 316.775 810.789 271.776 799.289 267.776C787.789 263.776 786.789 265.276 771.789 265.276C756.789 265.276 748.289 273.276 740.789 276.276C733.289 279.276 576.789 369.776 553.289 382.776C529.789 395.776 503.789 410.276 498.789 415.276C493.789 420.276 492.289 425.276 496.289 437.776Z" fill="#E3D8A0" stroke="#2B051E" stroke-width="2"/>
<path d="M781.789 290.275L540.289 426.775L837.289 598.775L1076.79 456.275L781.789 290.275Z" stroke="#2B051E" stroke-width="2"/>
<path d="M-76 839L149.5 708.5L-76 577.5" stroke="#2B051E" stroke-width="2"/>
<path d="M175 734.5C180.833 731 193.4 721.1 197 709.5C197.139 709.052 197.255 708.607 197.349 708.164C197.9 714.276 198.6 728.1 197 734.5C195.4 740.9 186.667 747.5 182.5 750L-78 899V878.5L175 734.5Z" fill="#D78F35"/>
<path d="M-74 538L182.5 684.5C188.589 687.865 199.699 697.145 197.349 708.164M197.349 708.164C197.255 708.607 197.139 709.052 197 709.5C193.4 721.1 180.833 731 175 734.5L-78 878.5V899L182.5 750C186.667 747.5 195.4 740.9 197 734.5C198.6 728.1 197.9 714.276 197.349 708.164Z" stroke="#2B051E" stroke-width="2"/>
<path d="M1937.99 209L1712.49 78.5L1937.99 -52.5" stroke="#2B051E" stroke-width="2"/>
<path d="M1686.99 104.5C1681.15 101 1668.59 91.1 1664.99 79.5C1664.85 79.0521 1664.73 78.6068 1664.64 78.1642C1664.09 84.2762 1663.39 98.1 1664.99 104.5C1666.59 110.9 1675.32 117.5 1679.49 120L1939.99 269V248.5L1686.99 104.5Z" fill="#D78F35"/>
<path d="M1935.99 -92L1679.49 54.5C1673.4 57.8649 1662.29 67.1451 1664.64 78.1642M1664.64 78.1642C1664.73 78.6068 1664.85 79.0521 1664.99 79.5C1668.59 91.1 1681.15 101 1686.99 104.5L1939.99 248.5V269L1679.49 120C1675.32 117.5 1666.59 110.9 1664.99 104.5C1663.39 98.1 1664.09 84.2762 1664.64 78.1642Z" stroke="#2B051E" stroke-width="2"/>
<path d="M177 467.5L233 435H235.5C238 435 281.5 462.5 285 464C287.8 465.2 289.167 466.833 289.5 467.5C272.167 478.333 236.6 500 233 500C229.4 500 225.5 498 224 497L177 471V467.5Z" stroke="#2B051E" stroke-width="2"/>
<path d="M1620 975.5C1622.17 940.333 1647.4 857.9 1731 809.5C1814.6 761.1 1902.5 732.667 1936 724.5" stroke="#2B051E" stroke-width="2"/>
<path d="M1597 974.5C1600.17 934.333 1630.71 845.859 1718.5 796.5C1827 735.5 1855 735.5 1882.5 724.5C1908.17 714.231 1932 712.667 1940 711" stroke="#2B051E" stroke-width="2"/>
<path d="M1630.5 933.5L1605.5 930.5" stroke="#2B051E" stroke-width="2"/>
<path d="M1672 860L1650 851.5" stroke="#2B051E" stroke-width="2"/>
<path d="M1758 796.5L1735 786.5" stroke="#2B051E" stroke-width="2"/>
<path d="M1860 749L1847.5 735" stroke="#2B051E" stroke-width="2"/>
<path d="M1620 973C1622.17 1008.17 1647.4 1090.6 1731 1139C1814.6 1187.4 1902.5 1215.83 1936 1224" stroke="#2B051E" stroke-width="2"/>
<path d="M1597 974C1600.17 1014.17 1630.71 1102.64 1718.5 1152C1827 1213 1855 1213 1882.5 1224C1908.17 1234.27 1932 1235.83 1940 1237.5" stroke="#2B051E" stroke-width="2"/>
<path d="M1630.5 1015L1605.5 1018" stroke="#2B051E" stroke-width="2"/>
<path d="M1672 1088.5L1650 1097" stroke="#2B051E" stroke-width="2"/>
<path d="M1758 1152L1735 1162" stroke="#2B051E" stroke-width="2"/>
<path d="M1860 1199.5L1847.5 1213.5" stroke="#2B051E" stroke-width="2"/>
<path d="M1758 899.039C1758 898.239 1760.33 890.039 1761.5 886.039C1762 889.206 1763.2 895.339 1764 894.539C1765 893.539 1768 888.039 1768 888.039C1768 888.039 1772.5 881.039 1772.5 883.539C1772.5 886.039 1771 889.54 1771 889.54C1771 889.54 1769 894.04 1769 895.54C1769 897.04 1772.5 892.54 1775 891.04C1777.5 889.54 1777 890.54 1776 893.54C1775 896.54 1771 898.039 1771 899.039C1771 899.84 1772 900.706 1772.5 901.04" stroke="#2B051E" stroke-width="2"/>
<path d="M1808 1001.04C1808 1000.24 1810.33 992.039 1811.5 988.039C1812 991.206 1813.2 997.339 1814 996.539C1815 995.539 1818 990.039 1818 990.039C1818 990.039 1822.5 983.039 1822.5 985.539C1822.5 988.039 1821 991.54 1821 991.54C1821 991.54 1819 996.04 1819 997.54C1819 999.04 1822.5 994.54 1825 993.04C1827.5 991.54 1827 992.54 1826 995.54C1825 998.54 1821 1000.04 1821 1001.04C1821 1001.84 1822 1002.71 1822.5 1003.04" stroke="#2B051E" stroke-width="2"/>
<path d="M1699 1050.04C1699 1049.24 1701.33 1041.04 1702.5 1037.04C1703 1040.21 1704.2 1046.34 1705 1045.54C1706 1044.54 1709 1039.04 1709 1039.04C1709 1039.04 1713.5 1032.04 1713.5 1034.54C1713.5 1037.04 1712 1040.54 1712 1040.54C1712 1040.54 1710 1045.04 1710 1046.54C1710 1048.04 1713.5 1043.54 1716 1042.04C1718.5 1040.54 1718 1041.54 1717 1044.54C1716 1047.54 1712 1049.04 1712 1050.04C1712 1050.84 1713 1051.71 1713.5 1052.04" stroke="#2B051E" stroke-width="2"/>
<path d="M1870.82 1105.04C1870.82 1104.24 1868.49 1096.04 1867.32 1092.04C1866.82 1095.21 1865.62 1101.34 1864.82 1100.54C1863.82 1099.54 1860.82 1094.04 1860.82 1094.04C1860.82 1094.04 1856.32 1087.04 1856.32 1089.54C1856.32 1092.04 1857.82 1095.54 1857.82 1095.54C1857.82 1095.54 1859.82 1100.04 1859.82 1101.54C1859.82 1103.04 1856.32 1098.54 1853.82 1097.04C1851.32 1095.54 1851.82 1096.54 1852.82 1099.54C1853.82 1102.54 1857.82 1104.04 1857.82 1105.04C1857.82 1105.84 1856.82 1106.71 1856.32 1107.04" stroke="#2B051E" stroke-width="2"/>
<path d="M1892.62 815.985C1892.91 815.24 1893.72 806.753 1894.09 802.603C1892.47 805.37 1889.12 810.645 1888.67 809.608C1888.1 808.313 1887.31 802.098 1887.31 802.098C1887.31 802.098 1885.67 793.94 1884.76 796.268C1883.85 798.596 1883.97 802.402 1883.97 802.402C1883.97 802.402 1884.19 807.322 1883.65 808.719C1883.1 810.115 1881.48 804.65 1879.7 802.342C1877.92 800.035 1878.02 801.148 1877.86 804.306C1877.69 807.464 1880.87 810.318 1880.51 811.25C1880.22 811.995 1878.97 812.438 1878.38 812.566" stroke="#2B051E" stroke-width="2"/>
<path d="M1860.71 889.859C1860.48 889.094 1860.3 880.57 1860.24 876.404C1861.65 879.284 1864.59 884.795 1865.12 883.795C1865.79 882.546 1867.04 876.407 1867.04 876.407C1867.04 876.407 1869.28 868.394 1870.02 870.784C1870.75 873.174 1870.35 876.96 1870.35 876.96C1870.35 876.96 1869.76 881.849 1870.2 883.283C1870.64 884.717 1872.66 879.387 1874.61 877.219C1876.56 875.051 1876.38 876.154 1876.3 879.315C1876.23 882.477 1872.84 885.085 1873.14 886.041C1873.37 886.806 1874.58 887.341 1875.16 887.513" stroke="#2B051E" stroke-width="2"/>
</g>
<defs>
<clipPath id="clip0_31_3322">
<rect width="1920" height="1347" fill="white"/>
</clipPath>
</defs>
</svg>
